# xmcd CD database file
#
# Track frame offsets:
#	150
#	18600
#	38575
#	53450
#	70350
#	87925
#	101200
#	116700
#	133850
#	150120
#	166250
#	183275
#	207150
#	221375
#	237675
#	248450
#
# Disc length: 3581 seconds
#
# Revision: 2
# Processed by: cddbd v1.4b41PL1 Copyright (c) Steve Scherf et al.
# Submitted via: Feurio! 1.51.12ß - http://www.feurio.com
#
DISCID=d20dfb10
DTITLE=Various Artist - Christmas Rock
DYEAR=1900
DGENRE=
TTITLE0=SANTA  and THE REINDEERS - Driving Home For Christmas
TTITLE1=THE THREE DEGREES - Last Christmas
TTITLE2=EMERSON, LAKE and PALMER - I Believe In Father Christmas
TTITLE3=MIDDLE OF THE ROAD - I Saw Mommy Kissing Santa Claus
TTITLE4=SHOWADDYWADDY - Rock Christmas (... In The Cardle Of Your Heart)
TTITLE5=THE INCHTABOKATABLES - X-Mas In The Old Mans Hat
TTITLE6=THE RATTLES - Jingle Bells (The Way To X-Mas)
TTITLE7=HELLO - Santa Rock
TTITLE8=LENINGRAD COWBOYS - There Must Be An Angel
TTITLE9=MUD - Lonely This Christmas
TTITLE10=GARY GLITTER - Another Roch 'n' Roll Christmas
TTITLE11=HELLO - Christmas Can't Be Beat
TTITLE12=MIKE BERRY - Blue Christmas
TTITLE13=BARRY BLUE - Christmas Moon
TTITLE14=THE CRICKETS - Deck The Halls
TTITLE15=COCO ROBICHEAUX - Saturday Night Befor Christmas
EXTD=
EXTT0=
EXTT1=
EXTT2=
EXTT3=
EXTT4=
EXTT5=
EXTT6=
EXTT7=
EXTT8=
EXTT9=
EXTT10=
EXTT11=
EXTT12=
EXTT13=
EXTT14=
EXTT15=
PLAYORDER=
